<?xml version="1.0" standalone="no"?>
<!DOCTYPE svg PUBLIC "-//W3C//DTD SVG 20010904//EN"
 "http://www.w3.org/TR/2001/REC-SVG-20010904/DTD/svg10.dtd">
<svg version="1.0" xmlns="http://www.w3.org/2000/svg"
 width="512.000000pt" height="512.000000pt" viewBox="0 0 512.000000 512.000000"
 preserveAspectRatio="xMidYMid meet">

<g transform="translate(0.000000,512.000000) scale(0.100000,-0.100000)"
fill="#ffffff" stroke="none">
<path d="M2370 5104 c-636 -57 -1179 -306 -1620 -744 -396 -392 -643 -887
-726 -1455 -25 -167 -25 -534 0 -695 43 -287 115 -519 236 -766 251 -516 657
-921 1175 -1175 1269 -621 2806 -94 3425 1175 121 247 193 479 236 766 25 161
25 528 0 695 -83 568 -330 1063 -726 1455 -400 397 -883 639 -1450 725 -101
15 -455 27 -550 19z m374 -819 c302 -83 519 -363 519 -670 -1 -103 -17 -171
-73 -290 -71 -155 -284 -462 -381 -550 -23 -20 -67 -49 -98 -64 -48 -22 -69
-26 -151 -26 -156 0 -225 43 -370 231 -155 200 -273 407 -315 549 -25 85 -23
219 4 318 72 263 270 452 537 511 84 19 241 15 328 -9z m-1184 -1476 c106 -29
224 -89 375 -190 329 -221 405 -314 405 -497 0 -136 -49 -220 -195 -336 -214
-168 -434 -298 -580 -342 -95 -29 -257 -24 -360 10 -197 67 -338 193 -425 381
-60 129 -79 247 -61 379 24 168 83 287 206 412 66 66 98 89 175 128 157 77
313 96 460 55z m2295 6 c39 -8 113 -36 165 -61 158 -78 288 -225 346 -392 63
-181 54 -355 -26 -527 -87 -188 -228 -314 -425 -381 -66 -22 -99 -27 -190 -28
-127 -1 -181 12 -320 79 -169 81 -501 319 -557 400 -92 133 -92 319 2 442 45
60 167 159 335 271 284 191 457 242 670 197z"/>
</g>
</svg>
